<svg xmlns="http://www.w3.org/2000/svg" data-name="Layer 2" viewBox="0 0 100 125" x="0px" y="0px"><path d="M20.52,73.78c-.25,0-.5-.09-.69-.28-.4-.38-.41-1.02-.02-1.41l24.3-25.16c.38-.4,1.02-.41,1.41-.03s.41,1.02,.02,1.41l-24.3,25.16c-.2,.2-.46,.31-.72,.31Z"/><path d="M51.57,41.63c-.25,0-.5-.09-.69-.28-.4-.38-.41-1.02-.02-1.41l12.21-12.64c.38-.4,1.02-.41,1.41-.02,.4,.38,.41,1.02,.02,1.41l-12.21,12.64c-.2,.2-.46,.31-.72,.31Z"/><path d="M28.03,81.65c-.25,0-.5-.09-.69-.28-.4-.38-.41-1.02-.03-1.41l24.56-25.45c.38-.4,1.02-.41,1.41-.03,.4,.38,.41,1.02,.03,1.41l-24.56,25.45c-.2,.2-.46,.31-.72,.31Z"/><path d="M59.35,49.21c-.25,0-.5-.09-.69-.28-.4-.38-.41-1.02-.03-1.41l12.81-13.28c.38-.4,1.02-.41,1.41-.03,.4,.38,.41,1.02,.03,1.41l-12.81,13.28c-.2,.2-.46,.31-.72,.31Z"/><path d="M80.58,84.25c-.88,0-1.72-.16-2.52-.49-3.81-1.57-5.22-6.4-5.53-7.69L27.43,32.05c-.19-.19-.3-.45-.3-.72s.11-.53,.31-.72l7.02-6.72c.39-.37,1-.37,1.39,0l45.1,43.98c5.77,2.02,8.9,4.56,9.32,7.55,.52,3.71-3.37,6.47-3.54,6.58,0,0,0,0-.02,0-2.21,1.48-4.27,2.22-6.14,2.22ZM29.57,31.34l44.57,43.5c.14,.14,.24,.32,.28,.52,.01,.05,1.08,5.18,4.41,6.55,1.83,.75,4.11,.23,6.76-1.54,.15-.11,3.04-2.22,2.69-4.67-.31-2.19-3.15-4.26-8.2-6-.14-.05-.27-.13-.37-.23L35.14,26l-5.57,5.34Zm56.59,49.85h0Zm0,0h0Z"/><path d="M76.16,36.14c-7.35,0-13.56-5.45-13.98-12.41-.2-3.33,.94-6.55,3.22-9.07,2.45-2.72,6.05-4.37,9.86-4.53,7.65-.31,14.18,5.24,14.61,12.39,.2,3.33-.94,6.55-3.22,9.07-2.45,2.72-6.05,4.37-9.86,4.53-.21,0-.42,.01-.63,.01Zm-.27-24.03c-.18,0-.37,0-.55,.01-3.28,.14-6.36,1.55-8.46,3.88-1.92,2.12-2.88,4.83-2.71,7.61,.37,6.08,5.99,10.8,12.53,10.52,3.28-.14,6.36-1.55,8.46-3.88,1.92-2.12,2.88-4.83,2.71-7.61-.36-5.91-5.68-10.53-11.98-10.53Zm-2.01,19.85c-.25,0-.49-.09-.68-.26l-6.21-5.73c-.27-.25-.39-.64-.29-1l2.15-7.83c.1-.35,.37-.62,.72-.71l8.36-2.1c.32-.08,.67,0,.92,.23l6.21,5.72c.27,.25,.39,.64,.29,1l-2.14,7.83c-.1,.35-.37,.62-.72,.71l-8.37,2.11c-.08,.02-.16,.03-.25,.03Zm-5.08-7.05l5.36,4.95,7.28-1.84,1.82-6.68-5.36-4.94-7.27,1.83-1.83,6.68Zm13.45,3.94h0Z"/><path d="M73.87,31.96c-.25,0-.49-.09-.68-.26l-6.21-5.73c-.27-.25-.39-.64-.29-1l2.15-7.83c.1-.35,.37-.62,.72-.71l8.36-2.1c.32-.08,.67,0,.92,.23l6.21,5.72c.27,.25,.39,.64,.29,1l-2.14,7.83c-.1,.35-.37,.62-.72,.71l-8.37,2.11c-.08,.02-.16,.03-.25,.03Zm-5.08-7.05l5.36,4.95,7.28-1.84,1.82-6.68-5.36-4.94-7.27,1.83-1.83,6.68Z"/><path d="M73.87,31.96c-.25,0-.49-.09-.68-.26l-6.21-5.73c-.27-.25-.39-.64-.29-1l2.15-7.83c.1-.35,.37-.62,.72-.71l8.36-2.1c.32-.08,.67,0,.92,.23l6.21,5.72c.27,.25,.39,.64,.29,1l-2.14,7.83c-.1,.35-.37,.62-.72,.71l-8.37,2.11c-.08,.02-.16,.03-.25,.03Zm-5.08-7.05l5.36,4.95,7.28-1.84,1.82-6.68-5.36-4.94-7.27,1.83-1.83,6.68Z"/><path d="M19.64,89.89c-5,0-9.22-3.71-9.51-8.46-.14-2.27,.64-4.48,2.2-6.2,1.67-1.85,4.11-2.98,6.7-3.09,5.19-.21,9.64,3.57,9.94,8.45,.14,2.27-.64,4.47-2.2,6.2-1.67,1.85-4.11,2.98-6.7,3.09-.14,0-.29,0-.43,0Zm-.18-15.75c-.12,0-.23,0-.35,0-2.06,.09-3.99,.97-5.3,2.43-1.19,1.32-1.79,3.01-1.69,4.74,.23,3.8,3.76,6.74,7.86,6.57,2.06-.09,3.99-.97,5.3-2.43,1.19-1.32,1.79-3.01,1.69-4.74-.22-3.69-3.56-6.58-7.51-6.58Z"/><path d="M19.6,87.01c-3.36,0-6.2-2.51-6.4-5.71-.09-1.54,.44-3.03,1.49-4.2,1.12-1.25,2.77-2,4.51-2.08,3.49-.13,6.49,2.41,6.69,5.7h0c.09,1.54-.44,3.03-1.49,4.2-1.12,1.25-2.77,2-4.51,2.08-.1,0-.19,0-.29,0Zm-.11-9.99c-.07,0-.14,0-.21,0-1.21,.05-2.34,.57-3.11,1.42-.69,.77-1.04,1.74-.98,2.74,.13,2.21,2.2,3.93,4.6,3.83,1.21-.05,2.34-.57,3.11-1.42,.69-.77,1.04-1.74,.98-2.74h0c-.13-2.15-2.08-3.83-4.4-3.83Z"/><path d="M33.17,71.31c-.23,0-.46-.08-.65-.24l-3-2.54c-.21-.18-.34-.44-.35-.71-.01-.28,.09-.55,.28-.75l17.13-17.73c.19-.19,.44-.3,.7-.3,.26,0,.52,.1,.71,.28l2.81,2.74c.39,.38,.4,1.01,.02,1.41l-16.94,17.53c-.2,.2-.46,.3-.72,.3Zm-1.54-3.61l1.47,1.25,15.6-16.14-1.38-1.34-15.69,16.24Z"/><path d="M56.86,46.78c-.26,0-.51-.1-.7-.28l-2.81-2.74c-.39-.38-.4-1.02-.02-1.41l7.64-7.9c.36-.38,.96-.41,1.36-.07l3.01,2.53c.21,.18,.34,.44,.35,.71,.01,.28-.09,.55-.28,.75l-7.84,8.11c-.18,.19-.44,.3-.7,.3h-.01Zm-1.4-3.76l1.38,1.34,6.4-6.62-1.48-1.24-6.3,6.51Z"/><path d="M26,34.37c-.26,0-.51-.1-.71-.29l-8.34-8.36c-.19-.19-.3-.45-.29-.72,0-.27,.11-.53,.31-.71l11.8-11.29s.07-.06,.11-.09c.09-.07,9.59-6.73,18.54,.82,.36,.3,.46,.82,.24,1.23-.22,.42-.7,.62-1.15,.5-.41-.11-4.02-1.06-6.13,.7-1.3,1.08-1.83,3.04-1.58,5.84,.03,.3-.09,.6-.31,.81l-11.8,11.29c-.19,.18-.44,.28-.69,.28Zm-6.91-9.34l6.92,6.95,10.75-10.29c-.2-3.24,.58-5.62,2.33-7.07,1.12-.93,2.46-1.33,3.73-1.46-6.32-2.84-12.06,.88-12.73,1.34l-11.01,10.53Z"/><path d="M20.47,40.24c-.25,0-.5-.09-.7-.28l-9.13-8.89c-.19-.19-.3-.44-.3-.71,0-.27,.11-.53,.3-.71l3.77-3.71c.39-.38,1.01-.38,1.4,0l9.13,8.89c.19,.19,.3,.44,.3,.71,0,.27-.11,.53-.3,.72l-3.77,3.71c-.19,.19-.45,.29-.7,.29Zm-7.7-9.9l7.69,7.5,2.35-2.31-7.69-7.5-2.35,2.31Z"/><path d="M16.52,27.86c-.53,0-1.12-.08-1.73-.29-.52-.18-.8-.75-.62-1.27,.18-.52,.75-.8,1.27-.62,1.55,.53,2.83-.26,2.88-.3,.46-.3,1.08-.17,1.38,.29,.3,.46,.18,1.07-.28,1.38-.06,.04-1.24,.81-2.9,.81Z"/><path d="M24.24,36.52c-.41,0-.79-.25-.94-.65-.99-2.64,.14-4.58,.19-4.66,.28-.47,.9-.63,1.37-.35,.47,.28,.63,.89,.35,1.36-.04,.07-.67,1.25-.04,2.94,.19,.52-.07,1.09-.59,1.29-.12,.04-.23,.06-.35,.06Z"/></svg>