<svg xmlns="http://www.w3.org/2000/svg" xmlns:xlink="http://www.w3.org/1999/xlink" version="1.1" x="0px" y="0px" viewBox="0 0 100 125" style="enable-background:new 0 0 100 100;" xml:space="preserve"><path d="M86.9440384,7.7770777H13.0559549c-2.8000374,0-5.4842663,1.1124153-7.4643559,3.0916004  c-1.9791856,1.9800673-3.0916007,4.6652222-3.0916007,7.4643564v63.3339348c0,2.7991333,1.1124151,5.4842606,3.0916007,7.4643555  c1.9800687,1.9791794,4.6643186,3.0915985,7.4643559,3.0915985h73.8880844c2.8000412,0,5.4842606-1.1124191,7.4643555-3.0915985  C96.3875809,87.1512527,97.5,84.4661026,97.5,81.6669693V18.3330345c0-2.7991343-1.1124191-5.4842672-3.0916061-7.4643564  C92.4283218,8.889493,89.7440796,7.7770777,86.9440384,7.7770777z M46.0416222,14.3746634  c1.0496674,0,2.0569534,0.4170551,2.7991333,1.1592369c0.7421799,0.7421808,1.1592369,1.749465,1.1592369,2.7991343  c0,1.0496674-0.417057,2.0569496-1.1592369,2.7991333s-1.7494659,1.1592369-2.7991333,1.1592369  s-2.0569534-0.4170532-2.7991333-1.1592369s-1.1592369-1.7494659-1.1592369-2.7991333  c0-1.0496693,0.417057-2.0569496,1.1592369-2.7991343C43.9846687,14.7917166,44.9919548,14.3746634,46.0416222,14.3746634z   M30.2081394,14.3746634c1.0496674,0,2.0569515,0.4170551,2.7991314,1.1592369  c0.7421837,0.7421808,1.1592407,1.749465,1.1592407,2.7991343c0,1.0496674-0.417057,2.0569496-1.1592407,2.7991333  c-0.7421799,0.7421837-1.749464,1.1592369-2.7991314,1.1592369c-1.0496693,0-2.0569496-0.4170532-2.7991352-1.1592369  c-0.7421837-0.7421837-1.1592369-1.7494659-1.1592369-2.7991333c0-1.0496693,0.4170532-2.0569496,1.1592369-2.7991343  C28.1511898,14.7917166,29.1584702,14.3746634,30.2081394,14.3746634z M14.3746557,14.3746634  c1.0496674,0,2.0569487,0.4170551,2.7991323,1.1592369c0.7421856,0.7421808,1.1592388,1.749465,1.1592388,2.7991343  c0,1.0496674-0.4170532,2.0569496-1.1592388,2.7991333c-0.7421837,0.7421837-1.749465,1.1592369-2.7991323,1.1592369  s-2.0569496-0.4170532-2.7991343-1.1592369c-0.7421837-0.7421837-1.1592369-1.7494659-1.1592369-2.7991333  c0-1.0496693,0.4170532-2.0569496,1.1592369-2.7991343C12.3177061,14.7917166,13.3249874,14.3746634,14.3746557,14.3746634z   M92.223381,76.3898926c-0.0035324,2.798233-1.1168289,5.4815598-3.0952225,7.4598389  c-1.979187,1.979187-4.6625137,3.0925064-7.4607468,3.0952148h-63.333931  c-2.7982283-0.0026474-5.4815493-1.1159439-7.4607382-3.0952148c-1.978302-1.978302-3.0916009-4.6616058-3.0952215-7.4598389  V28.8894463h84.4467545L92.223381,76.3898926z M36.8061867,76.3898926c-0.7006721,0.000885-1.3721771-0.2774429-1.8660889-0.7731247  L19.1066151,59.783287c-0.4947968-0.4947968-0.7731266-1.1662941-0.7731266-1.8660889  c0-0.6997986,0.2783298-1.3712921,0.7731266-1.8652077l15.2327137-15.2406311v-0.0008812  c0.4930305-0.5027618,1.1671982-0.788147,1.8713837-0.7916756c0.7042084-0.0035362,1.3810196,0.2747765,1.8793449,0.7731247  c0.4983215,0.4983253,0.7766533,1.1742592,0.7731247,1.8793449c-0.0035362,0.7042046-0.2889175,1.3783722-0.7916756,1.8713837  L24.7039776,57.9171982l13.9673939,13.967392c0.7545586,0.7545547,0.980751,1.8899536,0.5716591,2.8760376  c-0.4082069,0.9860687-1.3695259,1.6284027-2.4367752,1.6292877L36.8061867,76.3898926z M63.1960754,76.3898926h-0.0008812  c-1.0673599,0-2.0286789-0.6432495-2.4376793-1.6292877c-0.4082069-0.9860611-0.1820145-2.1214371,0.5725365-2.8760376  l13.9673958-13.967392L61.9299126,44.541729c-0.5027542-0.4930305-0.7881432-1.1662941-0.7916718-1.8704987  c-0.0035362-0.7050896,0.2747803-1.3810196,0.7731247-1.8793449c0.4983253-0.4983215,1.1742592-0.7766533,1.8793449-0.7731247  c0.7042084,0.0035362,1.3783722,0.2889137,1.8713837,0.7916756l15.2327118,15.2406311  c0.4947968,0.4947968,0.7731247,1.1662903,0.7731247,1.8660889c0,0.6997948-0.2783279,1.3712921-0.7731247,1.8660889  L65.0613251,75.6167297c-0.4939117,0.4956741-1.1654167,0.7740097-1.8660889,0.7731247L63.1960754,76.3898926z"/></svg>