<svg xmlns="http://www.w3.org/2000/svg" data-name="Layer 1" viewBox="0 0 100 125" x="0px" y="0px"><defs><style>.cls-1{fill-rule:evenodd;}</style></defs><title>a</title><path class="cls-1" d="M61.792,18.951A7.51,7.51,0,0,1,64.683,22.8a4.937,4.937,0,0,1-4.547,6.626,7.51,7.51,0,0,1-4.692-1.359v0a7.518,7.518,0,0,1-2.961-3.893,4.936,4.936,0,0,1,4.546-6.626,7.5,7.5,0,0,1,4.623,1.313,1.346,1.346,0,0,1,.141.1Zm-1.363,1.965a1.326,1.326,0,0,1-.116-.08,5.093,5.093,0,0,0-3.126-.907,2.558,2.558,0,0,0-2.422,3.537,5.09,5.09,0,0,0,1.97,2.583,1.1,1.1,0,0,1,.117.08,5.1,5.1,0,0,0,3.125.907A2.558,2.558,0,0,0,62.4,23.5a5.078,5.078,0,0,0-1.97-2.582ZM64.172,8.161a7.891,7.891,0,0,0,.847,1.31,9.071,9.071,0,0,0,4.312,2.957,7.916,7.916,0,0,0,1.525.32c.1-2.306-.407-4.027-1.591-4.839h0c-1.188-.814-2.977-.669-5.092.253ZM46.5,22.692l-8.535-.531L34.173,27.69l7.918,4.458a41.7,41.7,0,0,1,1.9-4.757,52.168,52.168,0,0,1,2.512-4.7ZM41.959,37.953c-.022.032.025-.032.036-.041l-.01,0-.026.038Zm9.112,6.255.033-.048v-.009c0,.011-.057.094-.032.057ZM49.963,43.5l-7.725-5.3a.59.59,0,0,1-.24-.291h0l-.01,0,.856-1.248,9.115,6.25L51.1,44.16v-.01a.6.6,0,0,1-.366-.121l-.685-.469a.931.931,0,0,0-.089-.061ZM43.89,34.488l9.722,6.667a36.6,36.6,0,0,0,4.861-4.3,51.7,51.7,0,0,0,5.2-6.434c.01-.017.021-.035.033-.052h0l.007-.01a43.027,43.027,0,0,0,6.7-14.443c.059-.268.111-.532.158-.791a10.226,10.226,0,0,1-1.958-.41,11.476,11.476,0,0,1-5.471-3.752,10.28,10.28,0,0,1-1.093-1.682c-.224.137-.451.281-.679.432A43.006,43.006,0,0,0,50.324,21.162h0A51.761,51.761,0,0,0,46.15,28.4a36.475,36.475,0,0,0-2.26,6.086Zm-1.542,6.687a5.265,5.265,0,0,0-1.234,2.633,16.046,16.046,0,0,0-.008,5.141,16.033,16.033,0,0,0,4.788-1.862,5.261,5.261,0,0,0,2.012-2.1l-5.558-3.812ZM65.51,38.461l1.735,3.775-3.794,5.533-7.013-5.78A41.165,41.165,0,0,0,60.2,38.506a51.99,51.99,0,0,0,3.479-4.039L65.435,38.3a1.261,1.261,0,0,0,.075.163ZM77.174,58.519,55.7,70.916a1.194,1.194,0,0,1-1.629-.44L51.2,65.5v26.23l25.976-15V58.519Zm-21.63,9.734L77.678,55.474a1.168,1.168,0,0,1,.2-.113l3.976-2.3-3.914-6.779L51.63,61.474l3.914,6.779ZM18.149,53.065l3.914-6.779L48.368,61.473l-3.914,6.779L22.322,55.474a1.168,1.168,0,0,0-.2-.113l-3.976-2.3Zm5.869-8.41,17.293-9.984-1.327,1.935a2.294,2.294,0,0,0-.269,2.007,2.92,2.92,0,0,0,.687,1.149,7.756,7.756,0,0,0-1.627,3.578,20.192,20.192,0,0,0,.162,7.25,1.2,1.2,0,0,0,1.38.978,1.058,1.058,0,0,0,.124-.028A20.09,20.09,0,0,0,47.176,49.1a7.755,7.755,0,0,0,2.748-2.8,2.921,2.921,0,0,0,1.338.238,2.3,2.3,0,0,0,1.783-.98l1.433-2.09,8.463,6.976a1.193,1.193,0,0,0,1.68-.163c.023-.028.044-.057.064-.086h0L69.6,43.029a1.194,1.194,0,0,0,.068-1.235L69.2,40.775l6.775,3.885L50,59.656l-25.982-15ZM20.43,57.136V77.417h0a1.2,1.2,0,0,0,.6,1.034L49.33,94.79a1.2,1.2,0,0,0,1.341,0L78.9,78.494a1.2,1.2,0,0,0,.675-1.077V57.136l4.5-2.6a1.194,1.194,0,0,0,.44-1.629l-5.059-8.762a1.184,1.184,0,0,0-.489-.528L67.479,37.03l-2.185-4.754q.177-.251.353-.506c.019-.025.038-.05.056-.077l0,0a45.448,45.448,0,0,0,7.058-15.274c1.04-4.794.432-8.64-2.066-10.426a1.289,1.289,0,0,0-.162-.111c-2.56-1.685-6.366-.864-10.465,1.836A45.421,45.421,0,0,0,48.372,19.781c-.014.019-.027.038-.04.059q-.187.273-.371.548l-10.5-.653a1.2,1.2,0,0,0-1.085.518L31.49,27.377a1.156,1.156,0,0,0-.084.13,1.2,1.2,0,0,0,.458,1.628L39.082,33.2,21.029,43.621a1.191,1.191,0,0,0-.471.5l-5.072,8.783a1.194,1.194,0,0,0,.44,1.629l4.5,2.6Zm23.8,13.742L22.826,58.519V76.728l25.976,15V65.5l-2.875,4.981a1.2,1.2,0,0,1-1.633.435Z"/></svg>