<svg xmlns="http://www.w3.org/2000/svg" version="1.1" viewBox="-5.0 -10.0 110.0 135.0">
 <path d="m65.199 0.5h-30.395c-4.668 0-8.4688 3.8008-8.4688 8.4688v63.297c0 4.668 3.8008 8.4688 8.4688 8.4688h4.3008l2.4531 4.2539c0.67188 1.1641 0.97266 2.2852 0.97266 3.6289v1.0312h-0.80469c-1.2227 0-2.2148 0.99219-2.2148 2.2148v5.4258c0 1.2227 0.99219 2.2148 2.2148 2.2148h21.723c1.2227 0 2.2148-0.99219 2.2148-2.2148v-5.4258c0-1.2227-0.99219-2.2148-2.2148-2.2148h-0.042969l1.0781-2.6133c0.53906-1.3086 0.78125-2.5273 0.78125-3.9492v-2.3516c4.6367-0.035156 8.3984-3.8203 8.3984-8.4688v-63.297c-0.003906-4.668-3.7969-8.4688-8.4648-8.4688zm-2.625 95.91h-19.969v-3.6719h18.484 0.007812 0.003906 1.4688zm-16.949-6.7656v-1.0312c0-1.8906-0.44141-3.5352-1.3867-5.1758l-6.6914-11.594c-0.12109-0.21094-0.15234-0.45312-0.089844-0.69141 0.058594-0.22266 0.19531-0.40625 0.38281-0.52734 0.25391-0.11719 0.91016-0.33594 1.2812 0.30859l3.6172 6.2695c0.35156 0.60547 1.0625 0.90234 1.7383 0.72266 0.67578-0.17969 1.1445-0.79297 1.1445-1.4922l0.003906-20.836c0-0.49219 0.41797-0.91016 0.91016-0.91016 0.49219 0 0.91016 0.41797 0.91016 0.91016v16.121c0 0.85547 0.69141 1.5469 1.5469 1.5469 0.85547 0 1.5469-0.69141 1.5469-1.5469v-9.707c0-0.5 0.40625-0.90234 0.91016-0.90234 0.49219 0 0.91016 0.41406 0.91016 0.90234v11.051c0 0.85547 0.69141 1.5469 1.5469 1.5469s1.5469-0.69141 1.5469-1.5469v-8.0352c0-0.49219 0.41406-0.91016 0.90234-0.91016 0.49219 0 0.91016 0.41797 0.91016 0.91016v10.711c0 0.85547 0.69141 1.5469 1.5469 1.5469s1.5469-0.69141 1.5469-1.5469l-0.003906-8.5391c0-0.49219 0.41797-0.91016 0.91016-0.91016s0.91016 0.41797 0.91016 0.91016v15.883c0 1.0117-0.16406 1.8398-0.54688 2.7695l-1.5625 3.7891zm-0.070312-37.922c-1.4102 0.35547-2.5195 1.4609-2.8867 2.8672h-7.0391c-0.019531 0-0.03125-0.015625-0.03125-0.03125v-9.8945c0-0.015624 0.015625-0.03125 0.03125-0.03125h9.8945c0.011718 0 0.03125 0.019532 0.03125 0.03125zm25.016 20.543c0 2.9414-2.375 5.3398-5.3047 5.375v-10.441c0-2.207-1.7969-4-4-4-0.4375 0-0.85938 0.070312-1.2539 0.19922-0.625-1.3984-2.0273-2.3789-3.6562-2.3789-0.34375 0-0.67969 0.042969-0.99609 0.125-0.39453-1.7891-1.9961-3.1367-3.9062-3.1367-0.3125 0-0.61719 0.035157-0.91016 0.10547v-2.5195c0-1.4297-0.75781-2.6875-1.8906-3.3945v-7.543c0-1.7227-1.4023-3.125-3.125-3.125h-9.8945c-1.7227 0-3.125 1.4023-3.125 3.125v9.8945c0 1.7227 1.4023 3.125 3.125 3.125h6.9062v12.984l-0.73437-1.2695c-1.0898-1.8867-3.3555-2.5234-5.3828-1.5078-0.027344 0.011719-0.054687 0.027344-0.078125 0.042969-0.92578 0.53125-1.5859 1.3906-1.8633 2.4258-0.27734 1.0352-0.13672 2.1172 0.39453 3.0391l2.4531 4.2461h-2.5156c-2.9648 0-5.3789-2.4102-5.3789-5.3789l-0.003906-63.289c0-2.9648 2.4102-5.3789 5.3789-5.3789h30.395c2.9609 0 5.3711 2.4102 5.3711 5.3789zm-10.539-61.531h-20.055c-0.85547 0-1.5469-0.69141-1.5469-1.5469s0.69141-1.5469 1.5469-1.5469h20.055c0.85547 0 1.5469 0.69141 1.5469 1.5469-0.003906 0.85156-0.69531 1.5469-1.5469 1.5469zm-14.508 12.82h-9.8945c-1.7227 0-3.125 1.4023-3.125 3.125v9.8945c0 1.7227 1.4023 3.125 3.125 3.125h9.8945c1.7227 0 3.125-1.4023 3.125-3.125v-9.8945c-0.003907-1.7266-1.4023-3.125-3.125-3.125zm0.03125 13.016c0 0.015626-0.019532 0.03125-0.03125 0.03125h-9.8945c-0.019531 0-0.03125-0.015624-0.03125-0.03125v-9.8945c0-0.015625 0.015625-0.03125 0.03125-0.03125h9.8945c0.011718 0 0.03125 0.019531 0.03125 0.03125zm18.824-13.016h-9.8945c-1.7266 0-3.1289 1.4023-3.1289 3.125v9.8945c0 1.7227 1.4023 3.125 3.1289 3.125h9.8945c1.7227 0 3.125-1.4023 3.125-3.125v-9.8945c-0.003906-1.7266-1.4023-3.125-3.125-3.125zm0.03125 13.016c0 0.015626-0.019531 0.03125-0.03125 0.03125h-9.8945c-0.019531 0-0.039063-0.019531-0.039063-0.03125v-9.8945c0-0.007812 0.015626-0.03125 0.039063-0.03125h9.8945c0.011719 0 0.03125 0.019531 0.03125 0.03125zm-0.03125 4.9648h-9.8945c-1.7266 0-3.1289 1.4023-3.1289 3.125v9.8945c0 1.7227 1.4023 3.125 3.1289 3.125h9.8945c1.7227 0 3.125-1.4023 3.125-3.125v-9.8945c-0.003906-1.7227-1.4023-3.125-3.125-3.125zm0.03125 13.02c0 0.015624-0.019531 0.03125-0.03125 0.03125h-9.8945c-0.019531 0-0.039063-0.019532-0.039063-0.03125v-9.8945c0-0.007812 0.015626-0.03125 0.039063-0.03125h9.8945c0.011719 0 0.03125 0.019532 0.03125 0.03125z"/>
</svg>