<svg xmlns="http://www.w3.org/2000/svg" xmlns:xlink="http://www.w3.org/1999/xlink" xml:space="preserve" version="1.1" style="shape-rendering:geometricPrecision;text-rendering:geometricPrecision;image-rendering:optimizeQuality;" viewBox="0 0 846.66 1058.325" x="0px" y="0px" fill-rule="evenodd" clip-rule="evenodd"><defs><style type="text/css">
   
    .fil0 {fill:black;fill-rule:nonzero}
   
  </style></defs><g><path class="fil0" d="M345.63 25.25c50.32,0 96.07,16.63 129.34,43.5 8.23,6.64 15.7,13.91 22.31,21.71 5.51,-1.62 11.17,-2.97 16.95,-4.01 9.98,-1.81 20.17,-2.77 30.35,-2.77 38.3,0 73.17,12.7 98.56,33.2 26.42,21.34 42.79,51.1 42.79,84.21 0,18.11 -4.98,35.33 -13.87,50.75 -7.58,13.14 -17.98,24.91 -30.52,34.73l0.01 60.93 -58.06 -33.51c-5.03,1.18 -10.27,2.15 -15.68,2.89 -7.76,1.05 -15.55,1.62 -23.23,1.62 -17.27,0 -33.94,-2.62 -49.37,-7.38 -11.9,-3.67 -23.06,-8.65 -33.2,-14.71 -31.75,21.22 -72.31,33.98 -116.38,33.98 -10.18,0 -20.41,-0.73 -30.56,-2.12 -7.83,-1.08 -15.44,-2.54 -22.79,-4.35l-71.67 41.37 0.02 -75.04c-17.38,-13.16 -31.71,-29.07 -41.98,-46.87 -11.48,-19.93 -17.91,-42.16 -17.91,-65.56 0,-42.82 21.23,-81.37 55.54,-109.07 33.28,-26.87 79.04,-43.5 129.35,-43.5zm-83.19 211.87c-9.35,0 -16.93,-7.58 -16.93,-16.93 0,-9.35 7.58,-16.93 16.93,-16.93l164.18 0c9.35,0 16.93,7.58 16.93,16.93 0,9.35 -7.58,16.93 -16.93,16.93l-164.18 0zm0 -57.2c-9.35,0 -16.93,-7.58 -16.93,-16.93 0,-9.35 7.58,-16.93 16.93,-16.93l164.18 0c9.35,0 16.93,7.58 16.93,16.93 0,9.35 -7.58,16.93 -16.93,16.93l-164.18 0zm-54 486.14l10.97 -17.41c2.74,-4.35 3.45,-9.48 2.38,-14.2 -1.06,-4.69 -3.9,-8.99 -8.24,-11.72l-1.52 -0.96c-4.35,-2.74 -9.48,-3.45 -14.21,-2.38 -2.11,0.49 -4.08,1.31 -5.86,2.41 -2.32,1.45 -4.32,3.42 -5.85,5.83l-3.51 5.57c-2.03,3.24 -2.57,7.07 -1.77,10.61 0.78,3.48 2.9,6.68 6.14,8.72l21.47 13.53zm39.53 0.57l-10.98 17.43 33.31 20.99 11.48 -18.26c2.32,-4.16 2.88,-8.93 1.88,-13.36 -1.06,-4.68 -3.91,-8.98 -8.25,-11.71l-1.51 -0.95c-4.35,-2.74 -9.48,-3.46 -14.21,-2.39 -4.68,1.06 -8.98,3.91 -11.72,8.25zm-16.44 -72.46c11.62,7.31 19.4,18.53 22.7,30.87 12.55,-2.35 26.02,-0.15 37.65,7.17l1.51 0.95c11.63,7.32 19.4,18.54 22.71,30.88 12.54,-2.35 25.99,-0.16 37.62,7.15l2.65 1.7c10.98,7.32 18.38,18.19 21.59,30.14 12.13,-2.27 25.13,-0.3 36.48,6.45l2.74 1.67c8.91,5.65 15.56,13.6 19.66,22.58 -0.57,-3.66 0.05,-7.53 2.03,-10.99 4.63,-8.07 14.95,-10.85 23.02,-6.22l56.07 32.37c1.17,0.66 2.51,0.78 3.75,0.45 1.2,-0.31 2.26,-1.06 2.9,-2.14l11.22 -19.42c0.64,-1.08 0.75,-2.42 0.43,-3.63 -0.28,-1.06 -0.9,-2.03 -1.76,-2.67l-59.29 -34.23c-8.07,-4.67 -10.82,-15.02 -6.15,-23.09 4.67,-8.07 15.02,-10.82 23.09,-6.15 26.59,15.35 53.85,32.07 80.89,46.71 1.1,0.64 2.44,0.76 3.64,0.44 1.19,-0.32 2.29,-1.1 2.94,-2.22l11.18 -19.36c0.64,-1.08 0.75,-2.43 0.43,-3.65 -0.32,-1.22 -1.09,-2.32 -2.16,-2.93l-22.16 -12.74 -58.75 -33.97c-8.07,-4.63 -10.85,-14.95 -6.22,-23.02 4.63,-8.07 14.95,-10.85 23.02,-6.22l58.89 33.97c1.1,0.64 2.44,0.76 3.64,0.44 1.26,-0.32 2.28,-1.09 2.93,-2.22l11.16 -19.28c0.64,-1.17 0.76,-2.5 0.44,-3.7 -0.31,-1.18 -1.1,-2.27 -2.24,-2.93l-154.42 -89.19c-8.07,-4.63 -10.85,-14.95 -6.22,-23.02 4.63,-8.07 14.95,-10.85 23.02,-6.22l154.56 89.19c9.19,5.31 15.41,13.91 17.96,23.45 1.6,5.97 1.77,12.34 0.37,18.53 12.31,-17.04 25.29,-38.96 41.31,-68.96 1.58,-2.97 3.93,-5.27 6.67,-6.79l80.33 -46.37c8.07,-4.63 18.39,-1.85 23.02,6.22 4.63,8.07 1.85,18.39 -6.22,23.02l-76.32 44.06c-16.38,30.42 -29.83,52.82 -42.77,70.48 -11.73,16.02 -23.13,28.3 -35.87,39.12 0.06,6.66 -1.6,13.43 -5.16,19.6l-11.18 19.43c-5.32,9.21 -13.92,15.39 -23.46,17.94 -5.61,1.5 -11.59,1.74 -17.44,0.6 -0.76,2.12 -1.73,4.21 -2.89,6.23l-11.18 19.43c-5.31,9.18 -13.93,15.36 -23.46,17.9 -6.39,1.73 -13.25,1.79 -19.84,0.05l-1.84 3.63 -10.08 17.46c-5.03,8.77 -13.15,14.63 -22.18,17.04 -9,2.42 -18.98,1.41 -27.71,-3.64l-28.28 -16.35c-5.94,5.01 -12.95,8.44 -20.34,10.11 -11.88,2.69 -24.84,0.86 -35.98,-6.16l-195.19 -123.03c-11.13,-7.01 -18.4,-17.95 -21.1,-29.88 -2.69,-11.88 -0.85,-24.86 6.15,-35.99l3.51 -5.57c1.18,-1.87 2.45,-3.64 3.82,-5.31 -2.04,-3.46 -4.1,-7 -6.17,-10.65 -3.82,-6.72 -7.94,-14.21 -12.37,-22.45l-76.32 -44.05c-8.07,-4.63 -10.85,-14.95 -6.22,-23.02 4.63,-8.07 14.95,-10.85 23.02,-6.22l80.33 46.37c2.74,1.52 5.09,3.82 6.67,6.79 4.87,9.12 9.6,17.73 14.25,25.92l5.49 9.51 0.37 -0.09c13.09,-2.96 27.36,-0.94 39.59,6.76l1.52 0.96zm207.77 146.08c0.38,1.24 0.72,2.51 1.01,3.78 2.05,9.08 1.71,18.74 -1.27,27.88l26.68 15.37c0.59,0.34 1.36,0.4 2.05,0.22 0.67,-0.18 1.3,-0.62 1.66,-1.25l10.08 -17.39c0.35,-0.62 0.41,-1.4 0.22,-2.13 -0.18,-0.7 -0.6,-1.32 -1.18,-1.65l-33.46 -19.32c-2.43,-1.39 -4.38,-3.3 -5.79,-5.51zm-140.45 -17.2l33.31 21 10.98 -17.42c2.74,-4.35 3.45,-9.48 2.38,-14.2 -1,-4.43 -3.61,-8.51 -7.56,-11.25l-3.08 -1.94c-4.15,-2.31 -8.92,-2.86 -13.33,-1.86 -4.37,0.99 -8.41,3.54 -11.14,7.4l-11.56 18.27zm61.86 38.99l21.45 13.52c3.24,2.04 7.08,2.57 10.6,1.78 3.48,-0.78 6.69,-2.91 8.72,-6.14l3.51 -5.56c2.74,-4.35 3.45,-9.48 2.38,-14.21 -1.06,-4.69 -3.9,-8.99 -8.24,-11.72l-2.2 -1.37c-4.19,-2.4 -9.04,-2.98 -13.52,-1.97 -4.68,1.06 -8.98,3.91 -11.72,8.26l-10.98 17.41zm318.91 -405.62c8.07,-4.67 18.42,-1.92 23.09,6.15 4.67,8.07 1.92,18.42 -6.15,23.09l-86.4 49.89c-3.5,2.02 -7.42,2.65 -11.13,2.06l-111.73 -15.74c-41.68,-6.02 -62.59,6.31 -94.84,25.31l-105.97 61.27c-1.09,0.62 -1.84,1.7 -2.15,2.89 -0.32,1.24 -0.15,2.68 0.59,3.96 3.7,6.41 9.67,10.76 16.29,12.55 6.64,2.02 14.15,0.95 20.14,-2.49l63.08 -36.47c8.07,-4.67 18.42,-1.92 23.09,6.15 4.67,8.07 1.92,18.42 -6.15,23.09l-63.1 36.44c-14.96,8.6 -29.39,9.58 -45.92,5.94 -14.89,-4.04 -28.31,-13.79 -36.67,-28.27 -5.36,-9.27 -6.48,-19.82 -4.01,-29.36 2.52,-9.65 8.76,-18.33 18.01,-23.67l101.35 -58.61c-3.67,0.26 -7.53,0.68 -11.6,1.27l-111.8 15.74c-3.71,0.59 -7.63,-0.04 -11.13,-2.06l-86.4 -49.89c-8.07,-4.67 -10.82,-15.02 -6.15,-23.09 4.67,-8.07 15.02,-10.82 23.09,-6.15l81.35 46.97 106.28 -14.97c15.55,-2.25 28.86,-2.5 40.95,-1.14 9.89,1.11 18.87,3.28 27.47,6.29 19.06,-6.87 39.73,-9.38 68.89,-5.16l106.28 14.98 81.35 -46.97zm-162.67 -236.14c8.75,17.74 13.56,37.15 13.56,57.54 0,36.11 -15.1,69.2 -40.42,95.29 4.79,2.2 9.81,4.12 15.04,5.73 12.13,3.74 25.44,5.8 39.45,5.8 6.62,0 12.88,-0.43 18.73,-1.22 5.99,-0.82 12.01,-2.11 17.94,-3.79l6.81 -1.94 19.76 11.41 -0.01 -20.08 7.35 -4.99c11.77,-8.01 21.27,-17.91 27.66,-28.99 5.93,-10.29 9.25,-21.8 9.25,-33.95 0,-22.39 -11.51,-42.88 -30.09,-57.89 -19.63,-15.84 -46.99,-25.66 -77.4,-25.66 -8.61,0 -16.79,0.73 -24.39,2.11l-3.24 0.63zm-63.14 -25.21c-27.49,-22.21 -65.74,-35.96 -108.18,-35.96 -42.44,0 -80.69,13.75 -108.19,35.96 -26.46,21.36 -42.84,50.65 -42.84,82.75 0,17.43 4.77,33.98 13.29,48.76 9.12,15.81 22.54,29.84 39.06,41.08l7.4 5.03 0 34.11 33.26 -19.21 6.82 1.94c8.19,2.32 16.62,4.11 25.14,5.28 8.23,1.12 16.95,1.72 26.06,1.72 42.44,0 80.69,-13.75 108.18,-35.96 26.46,-21.36 42.84,-50.65 42.84,-82.75 0,-32.1 -16.38,-61.39 -42.84,-82.75z"/></g></svg>