<svg xmlns="http://www.w3.org/2000/svg" xmlns:xlink="http://www.w3.org/1999/xlink" version="1.1" x="0px" y="0px" viewBox="0 0 100 125" enable-background="new 0 0 100 100" xml:space="preserve"><g><g><g><path d="M20.9,11c3.1,0,5.7,2.5,5.7,5.7s-2.5,5.7-5.7,5.7c-3.1,0-5.6-2.5-5.6-5.7S17.8,11,20.9,11z"/></g><g><path d="M31.9,40.8c0,1.1-0.3,1.9-1.1,2.7c-1.5,1.4-5.4,2.3-9.9,2.3c-4.5,0-8.4-0.9-9.8-2.3c-0.8-0.8-1.1-1.7-1.1-2.8     C10,31,16.4,25,20.9,25C25.5,25,31.9,31,31.9,40.8z"/></g></g><g><g><path d="M77.7,11c3.1,0,5.7,2.5,5.7,5.7s-2.5,5.7-5.7,5.7c-3.1,0-5.6-2.5-5.6-5.7S74.6,11,77.7,11z"/></g><g><path d="M88.7,40.8c0,1.1-0.3,1.9-1.1,2.7c-1.5,1.4-5.4,2.3-9.9,2.3c-4.5,0-8.4-0.9-9.8-2.3c-0.8-0.8-1.1-1.7-1.1-2.8     C66.8,31,73.2,25,77.7,25C82.3,25,88.7,31,88.7,40.8z"/></g></g><g><g><g><path d="M40.9,28.6c6,0,12,0,18,0c2.4,0,2.4-3.8,0-3.8c-6,0-12,0-18,0C38.5,24.8,38.4,28.6,40.9,28.6L40.9,28.6z"/></g></g></g><g><g><path d="M49.3,57c3.1,0,5.7,2.5,5.7,5.7c0,3.1-2.5,5.7-5.7,5.7c-3.1,0-5.6-2.5-5.6-5.7C43.6,59.5,46.2,57,49.3,57z"/></g><g><path d="M60.2,86.8c0,1.1-0.3,1.9-1.1,2.7c-1.5,1.4-5.4,2.3-9.9,2.3c-4.5,0-8.4-0.9-9.8-2.3c-0.8-0.8-1.1-1.7-1.1-2.8     C38.3,77,44.7,71,49.3,71C53.8,71,60.2,77,60.2,86.8z"/></g></g><g><path d="M75.1,52.2c1.7-1.7,4.4,0.9,2.7,2.7c-4.2,4.2-8.5,8.5-12.7,12.7c-1.7,1.7-4.4-0.9-2.7-2.7C66.6,60.6,70.9,56.4,75.1,52.2z    "/></g><g><path d="M35,64.9c1.7,1.7-1,4.4-2.7,2.7c-4.2-4.2-8.5-8.5-12.7-12.7c-1.7-1.7,0.9-4.4,2.6-2.7C26.5,56.4,30.8,60.6,35,64.9z"/></g></g></svg>